<svg width="24" height="27" viewBox="0 0 24 27" fill="none" xmlns="http://www.w3.org/2000/svg">
<path d="M15.0554 4.125C15.0554 5.85089 13.6874 7.25 11.9999 7.25C10.3124 7.25 8.94434 5.85089 8.94434 4.125C8.94434 2.39911 10.3124 1 11.9999 1C13.6874 1 15.0554 2.39911 15.0554 4.125Z" stroke="#78D864" stroke-width="2"/>
<path d="M1 19.75L4.16418 18.1148C4.47214 17.9557 4.66667 17.6303 4.66667 17.2745C4.66667 13.6002 7.27941 10.4572 10.7859 9.85313C11.5842 9.71562 12.4158 9.71562 13.2141 9.85313C16.7206 10.4572 19.3333 13.6002 19.3333 17.2745C19.3333 17.6303 19.5279 17.9557 19.8358 18.1148L23 19.75" stroke="#78D864" stroke-width="2" stroke-linecap="round" stroke-linejoin="round"/>
<path d="M8.94439 18.5L7.67117 20.2362C7.6323 20.2892 7.61286 20.3157 7.59329 20.341C7.27177 20.7567 6.82941 21.0571 6.33008 21.1988C6.2997 21.2074 6.26823 21.2155 6.20541 21.2316L4.39067 21.6956C3.11623 22.0214 2.22217 23.1925 2.22217 24.536C2.22217 25.3446 2.86304 26 3.65359 26H5.5555C6.28793 26 6.65415 26 7.00961 25.9573C7.84098 25.8573 8.64342 25.5838 9.36714 25.1536C9.67658 24.9696 9.96956 24.7449 10.5555 24.2955L10.7777 24.125M10.7777 24.125L13.2222 22.25M10.7777 24.125L13.8818 25.3155C14.6267 25.6012 14.9991 25.744 15.3841 25.836C15.5832 25.8836 15.7846 25.921 15.9875 25.9479C16.3795 26 16.7773 26 17.5728 26H20.3463C21.1369 26 21.7777 25.3446 21.7777 24.536C21.7777 23.1925 20.8837 22.0214 19.6092 21.6956L17.7945 21.2316C17.7316 21.2155 17.7002 21.2075 17.6698 21.1988C17.1705 21.0571 16.7281 20.7567 16.4066 20.341C16.3871 20.3158 16.3675 20.2891 16.3287 20.2362L15.0555 18.5" stroke="#78D864" stroke-width="2" stroke-linecap="round" stroke-linejoin="round"/>
</svg>
