<svg width="21" height="26" viewBox="0 0 21 26" fill="none" xmlns="http://www.w3.org/2000/svg">
<path d="M2.98354 10.4972L6.61983 5.52559C8.97032 2.31193 10.1456 0.705099 11.2421 1.04466C12.3386 1.38421 12.3386 3.35499 12.3386 7.29654V7.66818C12.3386 9.08982 12.3386 9.80063 12.7881 10.2465L12.8119 10.2696C13.2711 10.706 14.0032 10.706 15.4674 10.706C18.1023 10.706 19.4198 10.706 19.865 11.5136C19.8724 11.5269 19.8796 11.5404 19.8865 11.554C20.3068 12.374 19.544 13.417 18.0184 15.5028L14.3821 20.4744C12.0315 23.6881 10.8563 25.2949 9.75979 24.9553C8.66329 24.6158 8.66332 22.645 8.66338 18.7034L8.66338 18.3319C8.66341 16.9102 8.66342 16.1994 8.2139 15.7535L8.19012 15.7305C7.7309 15.294 6.99879 15.294 5.53456 15.294C2.89965 15.294 1.5822 15.294 1.13694 14.4865C1.12957 14.4731 1.1224 14.4596 1.11544 14.4461C0.695126 13.626 1.45793 12.5831 2.98354 10.4972Z" stroke="#78D864" stroke-width="2"/>
</svg>
