<svg width="632" height="899" viewBox="0 0 632 899" fill="none" xmlns="http://www.w3.org/2000/svg">
<path d="M378.042 1148.59C428.726 1100.48 428.96 1096.96 387.193 1053.09C356.455 1020.94 352.231 1012.96 349.885 984.334C347.304 952.188 355.047 935.528 387.897 901.739C426.379 862.084 426.379 855.044 389.54 818.909C372.176 801.78 364.433 792.394 358.332 780.427C350.823 765.175 350.354 762.829 350.354 740.537C350.354 721.531 351.293 715.196 355.047 707.687C364.198 689.619 373.819 677.183 390.948 661.227C424.737 629.55 425.206 618.053 393.998 585.906C362.556 553.76 357.159 549.536 344.488 549.536C331.817 549.536 326.42 553.76 294.978 585.906C263.066 618.757 264.005 628.142 301.783 664.982C317.504 680.468 324.778 689.619 331.583 702.994C340.264 720.123 340.264 720.593 339.326 742.415C337.918 773.622 331.817 785.12 299.671 818.44C262.597 856.922 262.597 861.615 301.313 901.739C333.929 935.528 341.672 952.188 339.091 984.334C336.745 1012.96 332.521 1020.94 301.783 1053.09C260.016 1096.96 260.25 1100.48 310.934 1148.59C332.286 1168.77 332.99 1169 344.488 1169C355.986 1169 356.69 1168.77 378.042 1148.59Z" fill="#007844" fill-opacity="0.05"/>
<path d="M378.042 446.474C428.726 398.372 428.96 394.852 387.193 350.973C356.455 318.827 352.231 310.849 349.885 282.222C347.304 250.076 355.047 233.416 387.897 199.627C426.379 159.972 426.379 152.933 389.54 116.797C372.176 99.6681 364.433 90.2823 358.332 78.3154C350.823 63.0634 350.354 60.717 350.354 38.4257C350.354 19.4194 351.293 13.084 355.047 5.57532C364.198 -12.4924 373.819 -24.9286 390.948 -40.8845C424.737 -72.5616 425.206 -84.0592 393.998 -116.206C362.556 -148.352 357.159 -152.576 344.488 -152.576C331.817 -152.576 326.42 -148.352 294.978 -116.206C263.066 -83.3553 264.005 -73.9695 301.783 -37.1301C317.504 -21.6435 324.778 -12.4924 331.583 0.882414C340.264 18.0115 340.264 18.4808 339.326 40.3028C337.918 71.5107 331.817 83.0083 299.671 116.328C262.597 154.81 262.597 159.503 301.313 199.627C333.929 233.416 341.672 250.076 339.091 282.222C336.745 310.849 332.521 318.827 301.783 350.973C260.016 394.852 260.25 398.372 310.934 446.474C332.286 466.654 332.99 466.888 344.488 466.888C355.986 466.888 356.69 466.654 378.042 446.474Z" fill="#007844" fill-opacity="0.05"/>
<path d="M649.641 1148.59C700.324 1100.48 700.559 1096.96 658.792 1053.09C628.053 1020.94 623.83 1012.96 621.483 984.334C618.902 952.188 626.645 935.528 659.496 901.739C697.978 862.084 697.978 855.044 661.138 818.909C643.775 801.78 636.031 792.394 629.93 780.427C622.422 765.175 621.953 762.829 621.953 740.537C621.953 721.531 622.891 715.196 626.645 707.687C635.797 689.619 645.417 677.183 662.546 661.227C696.335 629.55 696.804 618.053 665.597 585.906C634.154 553.76 628.757 549.536 616.086 549.536C603.416 549.536 598.019 553.76 566.576 585.906C534.664 618.757 535.603 628.142 573.381 664.982C589.102 680.468 596.376 689.619 603.181 702.994C611.863 720.123 611.863 720.593 610.924 742.415C609.516 773.622 603.416 785.12 571.269 818.44C534.195 856.922 534.195 861.615 572.912 901.739C605.527 935.528 613.271 952.188 610.69 984.334C608.343 1012.96 604.119 1020.94 573.381 1053.09C531.614 1096.96 531.849 1100.48 582.532 1148.59C603.885 1168.77 604.589 1169 616.086 1169C627.584 1169 628.288 1168.77 649.641 1148.59Z" fill="#007844" fill-opacity="0.05"/>
<path d="M106.443 1148.59C157.127 1100.48 157.361 1096.96 115.594 1053.09C84.8558 1020.94 80.6322 1012.96 78.2857 984.334C75.7046 952.188 83.4479 935.528 116.298 901.739C154.78 862.084 154.78 855.044 117.941 818.909C100.577 801.78 92.8338 792.394 86.733 780.427C79.2243 765.175 78.755 762.829 78.755 740.537C78.755 721.531 79.6936 715.196 83.4479 707.687C92.5991 689.619 102.22 677.183 119.349 661.227C153.138 629.55 153.607 618.053 122.399 585.906C90.9566 553.76 85.5598 549.536 72.8889 549.536C60.2181 549.536 54.8212 553.76 23.3787 585.906C-8.53304 618.757 -7.59445 628.142 30.1834 664.982C45.9047 680.468 53.1787 689.619 59.9834 702.994C68.6653 720.123 68.6653 720.593 67.7267 742.415C66.3188 773.622 60.2181 785.12 28.0716 818.44C-9.00233 856.922 -9.00233 861.615 29.7142 901.739C62.3299 935.528 70.0732 952.188 67.4921 984.334C65.1456 1012.96 60.922 1020.94 30.1834 1053.09C-11.5834 1096.96 -11.3488 1100.48 39.3346 1148.59C60.6873 1168.77 61.3913 1169 72.8889 1169C84.3865 1169 85.0905 1168.77 106.443 1148.59Z" fill="#007844" fill-opacity="0.05"/>
<path d="M649.641 446.474C700.324 398.372 700.559 394.852 658.792 350.973C628.053 318.827 623.83 310.849 621.483 282.222C618.902 250.076 626.645 233.416 659.496 199.627C697.978 159.972 697.978 152.933 661.138 116.797C643.775 99.6681 636.031 90.2823 629.93 78.3154C622.422 63.0634 621.953 60.717 621.953 38.4257C621.953 19.4194 622.891 13.084 626.645 5.57532C635.797 -12.4924 645.417 -24.9286 662.546 -40.8845C696.335 -72.5616 696.804 -84.0592 665.597 -116.206C634.154 -148.352 628.757 -152.576 616.086 -152.576C603.416 -152.576 598.019 -148.352 566.576 -116.206C534.664 -83.3553 535.603 -73.9695 573.381 -37.1301C589.102 -21.6435 596.376 -12.4924 603.181 0.882414C611.863 18.0115 611.863 18.4808 610.924 40.3028C609.516 71.5107 603.416 83.0083 571.269 116.328C534.195 154.81 534.195 159.503 572.912 199.627C605.527 233.416 613.271 250.076 610.69 282.222C608.343 310.849 604.119 318.827 573.381 350.973C531.614 394.852 531.849 398.372 582.532 446.474C603.885 466.654 604.589 466.888 616.086 466.888C627.584 466.888 628.288 466.654 649.641 446.474Z" fill="#007844" fill-opacity="0.05"/>
<path d="M106.443 446.475C157.126 398.373 157.361 394.853 115.594 350.974C84.8553 318.828 80.6317 310.85 78.2853 282.223C75.7042 250.077 83.4475 233.417 116.298 199.628C154.78 159.973 154.78 152.934 117.94 116.798C100.577 99.6691 92.8333 90.2833 86.7325 78.3164C79.2238 63.0644 78.7546 60.718 78.7546 38.4267C78.7546 19.4204 79.6931 13.085 83.4475 5.5763C92.5986 -12.4914 102.219 -24.9276 119.348 -40.8835C153.137 -72.5606 153.606 -84.0582 122.399 -116.205C90.9561 -148.351 85.5593 -152.575 72.8884 -152.575C60.2176 -152.575 54.8207 -148.351 23.3782 -116.205C-8.53352 -83.3543 -7.59494 -73.9685 30.183 -37.1292C45.9042 -21.6426 53.1782 -12.4914 59.9829 0.883391C68.6648 18.0125 68.6648 18.4818 67.7262 40.3038C66.3183 71.5117 60.2176 83.0093 28.0712 116.329C-9.00282 154.811 -9.00282 159.504 29.7137 199.628C62.3294 233.417 70.0727 250.077 67.4916 282.223C65.1451 310.85 60.9215 318.828 30.183 350.974C-11.5839 394.853 -11.3493 398.373 39.3341 446.475C60.6869 466.655 61.3908 466.889 72.8884 466.889C84.386 466.889 85.09 466.655 106.443 446.475Z" fill="#007844" fill-opacity="0.05"/>
<path d="M242.243 1030.12C292.926 982.019 293.161 978.5 251.394 934.621C220.655 902.474 216.432 894.496 214.085 865.87C211.504 833.723 219.247 817.063 252.098 783.275C290.579 743.619 290.579 736.58 253.74 700.445C236.376 683.316 228.633 673.93 222.532 661.963C215.024 646.711 214.554 644.364 214.554 622.073C214.554 603.067 215.493 596.731 219.247 589.223C228.398 571.155 238.019 558.719 255.148 542.763C288.937 511.086 289.406 499.588 258.198 467.442C226.756 435.295 221.359 431.072 208.688 431.072C196.017 431.072 190.621 435.295 159.178 467.442C127.266 500.292 128.205 509.678 165.983 546.517C181.704 562.004 188.978 571.155 195.783 584.53C204.465 601.659 204.465 602.128 203.526 623.95C202.118 655.158 196.017 666.656 163.871 699.975C126.797 738.457 126.797 743.15 165.513 783.275C198.129 817.063 205.872 833.723 203.291 865.87C200.945 894.496 196.721 902.474 165.983 934.621C124.216 978.5 124.451 982.019 175.134 1030.12C196.487 1050.3 197.191 1050.54 208.688 1050.54C220.186 1050.54 220.89 1050.3 242.243 1030.12Z" fill="#007844" fill-opacity="0.05"/>
<path d="M242.243 328.011C292.926 279.908 293.161 276.389 251.394 232.51C220.655 200.364 216.432 192.386 214.085 163.759C211.504 131.612 219.247 114.953 252.098 81.1637C290.579 41.5086 290.579 34.4693 253.74 -1.66613C236.376 -18.7952 228.633 -28.1811 222.532 -40.148C215.024 -55.3999 214.554 -57.7464 214.554 -80.0377C214.554 -99.044 215.493 -105.379 219.247 -112.888C228.398 -130.956 238.019 -143.392 255.148 -159.348C288.937 -191.025 289.406 -202.523 258.198 -234.669C226.756 -266.815 221.359 -271.039 208.688 -271.039C196.017 -271.039 190.621 -266.815 159.178 -234.669C127.266 -201.819 128.205 -192.433 165.983 -155.594C181.704 -140.107 188.978 -130.956 195.783 -117.581C204.465 -100.452 204.465 -99.9826 203.526 -78.1605C202.118 -46.9527 196.017 -35.4551 163.871 -2.13542C126.797 36.3464 126.797 41.0393 165.513 81.1637C198.129 114.953 205.872 131.612 203.291 163.759C200.945 192.386 196.721 200.364 165.983 232.51C124.216 276.389 124.451 279.908 175.134 328.011C196.487 348.19 197.191 348.425 208.688 348.425C220.186 348.425 220.89 348.19 242.243 328.011Z" fill="#007844" fill-opacity="0.05"/>
<path d="M513.842 1030.12C564.525 982.019 564.76 978.5 522.993 934.621C492.254 902.474 488.031 894.496 485.684 865.87C483.103 833.723 490.846 817.063 523.697 783.275C562.179 743.619 562.179 736.58 525.339 700.445C507.975 683.316 500.232 673.93 494.131 661.963C486.623 646.711 486.153 644.364 486.153 622.073C486.153 603.067 487.092 596.731 490.846 589.223C499.998 571.155 509.618 558.719 526.747 542.763C560.536 511.086 561.005 499.588 529.798 467.442C498.355 435.295 492.958 431.072 480.287 431.072C467.616 431.072 462.22 435.295 430.777 467.442C398.865 500.292 399.804 509.678 437.582 546.517C453.303 562.004 460.577 571.155 467.382 584.53C476.064 601.659 476.064 602.128 475.125 623.95C473.717 655.158 467.616 666.656 435.47 699.975C398.396 738.457 398.396 743.15 437.113 783.275C469.728 817.063 477.472 833.723 474.89 865.87C472.544 894.496 468.32 902.474 437.582 934.621C395.815 978.5 396.05 982.019 446.733 1030.12C468.086 1050.3 468.79 1050.54 480.287 1050.54C491.785 1050.54 492.489 1050.3 513.842 1030.12Z" fill="#007844" fill-opacity="0.05"/>
<path d="M513.841 328.011C564.524 279.908 564.759 276.389 522.992 232.51C492.254 200.364 488.03 192.386 485.683 163.759C483.102 131.612 490.846 114.953 523.696 81.1637C562.178 41.5086 562.178 34.4693 525.339 -1.66613C507.975 -18.7952 500.231 -28.1811 494.131 -40.148C486.622 -55.3999 486.153 -57.7464 486.153 -80.0377C486.153 -99.044 487.091 -105.379 490.846 -112.888C499.997 -130.956 509.617 -143.392 526.746 -159.348C560.535 -191.025 561.005 -202.523 529.797 -234.669C498.354 -266.815 492.957 -271.039 480.287 -271.039C467.616 -271.039 462.219 -266.815 430.776 -234.669C398.865 -201.819 399.803 -192.433 437.581 -155.594C453.302 -140.107 460.576 -130.956 467.381 -117.581C476.063 -100.452 476.063 -99.9826 475.124 -78.1605C473.717 -46.9527 467.616 -35.4551 435.469 -2.13542C398.395 36.3464 398.395 41.0393 437.112 81.1637C469.728 114.953 477.471 131.612 474.89 163.759C472.543 192.386 468.32 200.364 437.581 232.51C395.814 276.389 396.049 279.908 446.732 328.011C468.085 348.19 468.789 348.425 480.287 348.425C491.784 348.425 492.488 348.19 513.841 328.011Z" fill="#007844" fill-opacity="0.05"/>
</svg>
