<svg width="632" height="593" viewBox="0 0 632 593" fill="none" xmlns="http://www.w3.org/2000/svg">
<path d="M378.042 995.586C428.725 947.484 428.96 943.964 387.193 900.085C356.455 867.939 352.231 859.961 349.885 831.334C347.304 799.188 355.047 782.528 387.897 748.739C426.379 709.084 426.379 702.044 389.54 665.909C372.176 648.78 364.433 639.394 358.332 627.427C350.823 612.175 350.354 609.829 350.354 587.537C350.354 568.531 351.292 562.196 355.047 554.687C364.198 536.619 373.818 524.183 390.948 508.227C424.736 476.55 425.206 465.053 393.998 432.906C362.555 400.76 357.159 396.536 344.488 396.536C331.817 396.536 326.42 400.76 294.978 432.906C263.066 465.757 264.004 475.142 301.782 511.982C317.504 527.468 324.778 536.619 331.582 549.994C340.264 567.123 340.264 567.593 339.326 589.415C337.918 620.622 331.817 632.12 299.671 665.44C262.597 703.922 262.597 708.615 301.313 748.739C333.929 782.528 341.672 799.188 339.091 831.334C336.744 859.961 332.521 867.939 301.782 900.085C260.015 943.964 260.25 947.484 310.933 995.586C332.286 1015.77 332.99 1016 344.488 1016C355.985 1016 356.689 1015.77 378.042 995.586Z" fill="white" fill-opacity="0.05"/>
<path d="M378.042 293.475C428.725 245.372 428.96 241.853 387.193 197.974C356.455 165.827 352.231 157.849 349.885 129.223C347.304 97.0763 355.047 80.4165 387.897 46.6276C426.379 6.97249 426.379 -0.0668696 389.54 -36.2023C372.176 -53.3314 364.433 -62.7172 358.332 -74.6841C350.823 -89.9361 350.354 -92.2825 350.354 -114.574C350.354 -133.58 351.292 -139.916 355.047 -147.424C364.198 -165.492 373.818 -177.928 390.948 -193.884C424.736 -225.561 425.206 -237.059 393.998 -269.205C362.555 -301.352 357.159 -305.575 344.488 -305.575C331.817 -305.575 326.42 -301.352 294.978 -269.205C263.066 -236.355 264.004 -226.969 301.782 -190.13C317.504 -174.643 324.778 -165.492 331.582 -152.117C340.264 -134.988 340.264 -134.519 339.326 -112.697C337.918 -81.4888 331.817 -69.9912 299.671 -36.6716C262.597 1.81029 262.597 6.5032 301.313 46.6276C333.929 80.4165 341.672 97.0763 339.091 129.223C336.744 157.849 332.521 165.827 301.782 197.974C260.015 241.853 260.25 245.372 310.933 293.475C332.286 313.654 332.99 313.889 344.488 313.889C355.985 313.889 356.689 313.654 378.042 293.475Z" fill="white" fill-opacity="0.05"/>
<path d="M649.64 995.586C700.324 947.484 700.558 943.964 658.791 900.085C628.053 867.939 623.829 859.961 621.483 831.334C618.902 799.188 626.645 782.528 659.495 748.739C697.977 709.084 697.977 702.044 661.138 665.909C643.774 648.78 636.031 639.394 629.93 627.427C622.421 612.175 621.952 609.829 621.952 587.537C621.952 568.531 622.891 562.196 626.645 554.687C635.796 536.619 645.417 524.183 662.546 508.227C696.335 476.55 696.804 465.053 665.596 432.906C634.154 400.76 628.757 396.536 616.086 396.536C603.415 396.536 598.018 400.76 566.576 432.906C534.664 465.757 535.603 475.142 573.38 511.982C589.102 527.468 596.376 536.619 603.18 549.994C611.862 567.123 611.862 567.593 610.924 589.415C609.516 620.622 603.415 632.12 571.269 665.44C534.195 703.922 534.195 708.615 572.911 748.739C605.527 782.528 613.27 799.188 610.689 831.334C608.343 859.961 604.119 867.939 573.38 900.085C531.614 943.964 531.848 947.484 582.532 995.586C603.884 1015.77 604.588 1016 616.086 1016C627.584 1016 628.287 1015.77 649.64 995.586Z" fill="white" fill-opacity="0.05"/>
<path d="M106.443 995.586C157.126 947.484 157.361 943.964 115.594 900.085C84.8556 867.939 80.632 859.961 78.2855 831.334C75.7044 799.188 83.4477 782.528 116.298 748.739C154.78 709.084 154.78 702.044 117.941 665.909C100.577 648.78 92.8335 639.394 86.7327 627.427C79.2241 612.175 78.7548 609.829 78.7548 587.537C78.7548 568.531 79.6934 562.196 83.4477 554.687C92.5989 536.619 102.219 524.183 119.348 508.227C153.137 476.55 153.607 465.053 122.399 432.906C90.9564 400.76 85.5595 396.536 72.8887 396.536C60.2178 396.536 54.821 400.76 23.3785 432.906C-8.53328 465.757 -7.5947 475.142 30.1832 511.982C45.9044 527.468 53.1785 536.619 59.9832 549.994C68.665 567.123 68.665 567.593 67.7265 589.415C66.3186 620.622 60.2178 632.12 28.0714 665.44C-9.00257 703.922 -9.00257 708.615 29.7139 748.739C62.3296 782.528 70.0729 799.188 67.4918 831.334C65.1454 859.961 60.9217 867.939 30.1832 900.085C-11.5837 943.964 -11.349 947.484 39.3344 995.586C60.6871 1015.77 61.391 1016 72.8887 1016C84.3863 1016 85.0902 1015.77 106.443 995.586Z" fill="white" fill-opacity="0.05"/>
<path d="M649.64 293.475C700.324 245.372 700.558 241.853 658.791 197.974C628.053 165.827 623.829 157.849 621.483 129.223C618.902 97.0763 626.645 80.4165 659.495 46.6276C697.977 6.97249 697.977 -0.0668696 661.138 -36.2023C643.774 -53.3314 636.031 -62.7172 629.93 -74.6841C622.421 -89.9361 621.952 -92.2825 621.952 -114.574C621.952 -133.58 622.891 -139.916 626.645 -147.424C635.796 -165.492 645.417 -177.928 662.546 -193.884C696.335 -225.561 696.804 -237.059 665.596 -269.205C634.154 -301.352 628.757 -305.575 616.086 -305.575C603.415 -305.575 598.018 -301.352 566.576 -269.205C534.664 -236.355 535.603 -226.969 573.38 -190.13C589.102 -174.643 596.376 -165.492 603.18 -152.117C611.862 -134.988 611.862 -134.519 610.924 -112.697C609.516 -81.4888 603.415 -69.9912 571.269 -36.6716C534.195 1.81029 534.195 6.5032 572.911 46.6276C605.527 80.4165 613.27 97.0763 610.689 129.223C608.343 157.849 604.119 165.827 573.38 197.974C531.614 241.853 531.848 245.372 582.532 293.475C603.884 313.654 604.588 313.889 616.086 313.889C627.584 313.889 628.287 313.654 649.64 293.475Z" fill="white" fill-opacity="0.05"/>
<path d="M106.442 293.475C157.126 245.372 157.36 241.853 115.594 197.974C84.8551 165.827 80.6315 157.849 78.285 129.223C75.7039 97.0763 83.4472 80.4165 116.298 46.6276C154.779 6.97249 154.779 -0.0668696 117.94 -36.2023C100.576 -53.3314 92.833 -62.7172 86.7322 -74.6841C79.2236 -89.9361 78.7543 -92.2825 78.7543 -114.574C78.7543 -133.58 79.6929 -139.916 83.4472 -147.424C92.5984 -165.492 102.219 -177.928 119.348 -193.884C153.137 -225.561 153.606 -237.059 122.398 -269.205C90.9559 -301.352 85.559 -305.575 72.8882 -305.575C60.2173 -305.575 54.8205 -301.352 23.378 -269.205C-8.53377 -236.355 -7.59519 -226.969 30.1827 -190.13C45.904 -174.643 53.178 -165.492 59.9827 -152.117C68.6646 -134.988 68.6646 -134.519 67.726 -112.697C66.3181 -81.4888 60.2173 -69.9912 28.0709 -36.6716C-9.00306 1.81029 -9.00306 6.5032 29.7134 46.6276C62.3291 80.4165 70.0724 97.0763 67.4913 129.223C65.1449 157.849 60.9213 165.827 30.1827 197.974C-11.5842 241.853 -11.3495 245.372 39.3339 293.475C60.6866 313.654 61.3905 313.889 72.8882 313.889C84.3858 313.889 85.0897 313.654 106.442 293.475Z" fill="white" fill-opacity="0.05"/>
<path d="M242.242 877.122C292.926 829.02 293.16 825.5 251.393 781.621C220.655 749.475 216.431 741.497 214.085 712.87C211.504 680.724 219.247 664.064 252.097 630.275C290.579 590.62 290.579 583.581 253.74 547.445C236.376 530.316 228.633 520.93 222.532 508.963C215.023 493.711 214.554 491.365 214.554 469.074C214.554 450.067 215.493 443.732 219.247 436.223C228.398 418.156 238.019 405.719 255.148 389.763C288.937 358.086 289.406 346.589 258.198 314.442C226.756 282.296 221.359 278.072 208.688 278.072C196.017 278.072 190.62 282.296 159.178 314.442C127.266 347.293 128.205 356.678 165.983 393.518C181.704 409.004 188.978 418.156 195.782 431.53C204.464 448.659 204.464 449.129 203.526 470.951C202.118 502.159 196.017 513.656 163.871 546.976C126.797 585.458 126.797 590.151 165.513 630.275C198.129 664.064 205.872 680.724 203.291 712.87C200.945 741.497 196.721 749.475 165.983 781.621C124.216 825.5 124.45 829.02 175.134 877.122C196.486 897.302 197.19 897.536 208.688 897.536C220.186 897.536 220.89 897.302 242.242 877.122Z" fill="white" fill-opacity="0.05"/>
<path d="M242.242 175.011C292.926 126.908 293.16 123.389 251.393 79.51C220.655 47.3636 216.431 39.3856 214.085 10.7589C211.504 -21.3875 219.247 -38.0474 252.097 -71.8363C290.579 -111.491 290.579 -118.531 253.74 -154.666C236.376 -171.795 228.633 -181.181 222.532 -193.148C215.023 -208.4 214.554 -210.746 214.554 -233.038C214.554 -252.044 215.493 -258.379 219.247 -265.888C228.398 -283.956 238.019 -296.392 255.148 -312.348C288.937 -344.025 289.406 -355.523 258.198 -387.669C226.756 -419.815 221.359 -424.039 208.688 -424.039C196.017 -424.039 190.62 -419.815 159.178 -387.669C127.266 -354.819 128.205 -345.433 165.983 -308.594C181.704 -293.107 188.978 -283.956 195.782 -270.581C204.464 -253.452 204.464 -252.983 203.526 -231.161C202.118 -199.953 196.017 -188.455 163.871 -155.135C126.797 -116.654 126.797 -111.961 165.513 -71.8363C198.129 -38.0474 205.872 -21.3875 203.291 10.7589C200.945 39.3856 196.721 47.3636 165.983 79.51C124.216 123.389 124.45 126.908 175.134 175.011C196.486 195.19 197.19 195.425 208.688 195.425C220.186 195.425 220.89 195.19 242.242 175.011Z" fill="white" fill-opacity="0.05"/>
<path d="M513.841 877.122C564.525 829.02 564.759 825.5 522.993 781.621C492.254 749.475 488.03 741.497 485.684 712.87C483.103 680.724 490.846 664.064 523.696 630.275C562.178 590.62 562.178 583.581 525.339 547.445C507.975 530.316 500.232 520.93 494.131 508.963C486.623 493.711 486.153 491.365 486.153 469.074C486.153 450.067 487.092 443.732 490.846 436.223C499.997 418.156 509.618 405.719 526.747 389.763C560.536 358.086 561.005 346.589 529.797 314.442C498.355 282.296 492.958 278.072 480.287 278.072C467.616 278.072 462.219 282.296 430.777 314.442C398.865 347.293 399.804 356.678 437.582 393.518C453.303 409.004 460.577 418.156 467.382 431.53C476.063 448.659 476.063 449.129 475.125 470.951C473.717 502.159 467.616 513.656 435.47 546.976C398.396 585.458 398.396 590.151 437.112 630.275C469.728 664.064 477.471 680.724 474.89 712.87C472.544 741.497 468.32 749.475 437.582 781.621C395.815 825.5 396.049 829.02 446.733 877.122C468.086 897.302 468.789 897.536 480.287 897.536C491.785 897.536 492.489 897.302 513.841 877.122Z" fill="white" fill-opacity="0.05"/>
<path d="M513.84 175.011C564.524 126.908 564.758 123.389 522.992 79.51C492.253 47.3636 488.029 39.3856 485.683 10.7589C483.102 -21.3875 490.845 -38.0474 523.696 -71.8363C562.177 -111.491 562.177 -118.531 525.338 -154.666C507.974 -171.795 500.231 -181.181 494.13 -193.148C486.622 -208.4 486.152 -210.746 486.152 -233.038C486.152 -252.044 487.091 -258.379 490.845 -265.888C499.996 -283.956 509.617 -296.392 526.746 -312.348C560.535 -344.025 561.004 -355.523 529.796 -387.669C498.354 -419.815 492.957 -424.039 480.286 -424.039C467.615 -424.039 462.218 -419.815 430.776 -387.669C398.864 -354.819 399.803 -345.433 437.581 -308.594C453.302 -293.107 460.576 -283.956 467.381 -270.581C476.063 -253.452 476.063 -252.983 475.124 -231.161C473.716 -199.953 467.615 -188.455 435.469 -155.135C398.395 -116.654 398.395 -111.961 437.111 -71.8363C469.727 -38.0474 477.47 -21.3875 474.889 10.7589C472.543 39.3856 468.319 47.3636 437.581 79.51C395.814 123.389 396.048 126.908 446.732 175.011C468.085 195.19 468.788 195.425 480.286 195.425C491.784 195.425 492.488 195.19 513.84 175.011Z" fill="white" fill-opacity="0.05"/>
</svg>
