<svg width="23" height="20" viewBox="0 0 23 20" fill="none" xmlns="http://www.w3.org/2000/svg">
<path d="M0 9.55C0 5.40164 0 3.32746 1.28873 2.03873C2.57746 0.75 4.65164 0.75 8.8 0.75H13.2C17.3484 0.75 19.4225 0.75 20.7113 2.03873C22 3.32746 22 5.40164 22 9.55C22 13.6984 22 15.7725 20.7113 17.0613C19.4225 18.35 17.3484 18.35 13.2 18.35H8.8C4.65164 18.35 2.57746 18.35 1.28873 17.0613C0 15.7725 0 13.6984 0 9.55Z" stroke="#78D864" stroke-width="1.5"/>
<path d="M4.40002 5.15039L6.77481 7.12938C8.79511 8.81296 9.80526 9.65475 11 9.65475C12.1948 9.65475 13.2049 8.81296 15.2252 7.12938L17.6 5.15039" stroke="#78D864" stroke-width="1.5" stroke-linecap="round"/>
</svg>
