<svg width="28" height="19" viewBox="0 0 28 19" fill="none" xmlns="http://www.w3.org/2000/svg">
<path d="M11.8005 13.9242C11.8005 17.0108 9.70574 19 5.79551 19C2.02494 19 0 17.0794 0 13.9928V13.787C0 12.4838 0.209476 11.3177 1.25686 9.39711L7.26185 0H12.4289L9.49626 7.40794C8.44888 9.87726 11.8005 9.87726 11.8005 13.9242ZM15.5711 13.9928V13.787C15.5711 12.4838 15.7805 11.3177 16.8279 9.39711L22.8329 0H28L25.0673 7.40794C24.02 9.87726 27.3716 9.87726 27.3716 13.9242C27.3716 17.0108 25.2768 19 21.3666 19C17.596 19 15.5711 17.0794 15.5711 13.9928Z" fill="#78D864"/>
</svg>
