<svg width="53" height="53" viewBox="0 0 53 53" fill="none" xmlns="http://www.w3.org/2000/svg">
<path d="M27.9111 19.3208C22.0339 31.1194 29.1442 41.1696 39.8503 41.1897C46.7197 41.2027 50.8547 37.0663 51.9849 31.5869C52.3392 29.8693 52.5256 28.0904 52.5256 26.2676C52.5256 11.7604 40.7674 0 26.263 0C24.7302 0 23.2307 0.138762 21.77 0.39077C26.8481 1.20912 34.0351 7.02662 27.9111 19.3208Z" fill="#78D864"/>
<path d="M19.7969 49.2199C14.9872 44.6638 11.8252 34.6262 21.2204 21.5987C26.3086 14.5432 28.4606 9.10085 26.1264 4.94701C24.3187 1.72999 20.3734 0.397253 16.925 1.70961C7.03066 5.47511 0 15.0498 0 26.2675C0 40.643 11.5475 52.3144 25.8702 52.5251C23.2401 51.8692 21.2676 50.613 19.7969 49.2199Z" fill="#007844"/>
</svg>
