<svg width="664" height="872" viewBox="0 0 664 872" fill="none" xmlns="http://www.w3.org/2000/svg">
<path d="M557.18 858.691C587.837 829.595 587.979 827.466 562.715 800.925C544.122 781.481 541.567 776.655 540.148 759.34C538.587 739.895 543.271 729.818 563.141 709.38C586.417 685.394 586.417 681.136 564.134 659.279C553.631 648.918 548.948 643.241 545.258 636.002C540.716 626.777 540.432 625.358 540.432 611.874C540.432 600.378 541 596.546 543.271 592.004C548.806 581.075 554.625 573.553 564.986 563.902C585.424 544.741 585.708 537.786 566.831 518.342C547.812 498.898 544.548 496.343 536.884 496.343C529.219 496.343 525.955 498.898 506.936 518.342C487.634 538.212 488.202 543.889 511.052 566.173C520.562 575.54 524.962 581.075 529.077 589.165C534.329 599.526 534.329 599.81 533.761 613.01C532.91 631.886 529.219 638.841 509.775 658.995C487.35 682.272 487.35 685.11 510.768 709.38C530.497 729.818 535.18 739.895 533.619 759.34C532.2 776.655 529.645 781.481 511.052 800.925C485.789 827.466 485.931 829.595 516.588 858.691C529.503 870.897 529.929 871.039 536.884 871.039C543.838 871.039 544.264 870.897 557.18 858.691Z" fill="white" fill-opacity="0.05"/>
<path d="M228.667 858.691C259.324 829.595 259.466 827.466 234.203 800.925C215.61 781.481 213.055 776.655 211.636 759.34C210.075 739.895 214.758 729.818 234.629 709.38C257.905 685.394 257.905 681.136 235.622 659.279C225.119 648.918 220.436 643.241 216.745 636.002C212.204 626.777 211.92 625.358 211.92 611.874C211.92 600.378 212.487 596.546 214.758 592.004C220.294 581.075 226.113 573.553 236.474 563.902C256.912 544.741 257.196 537.786 238.319 518.342C219.3 498.898 216.036 496.343 208.371 496.343C200.707 496.343 197.443 498.898 178.424 518.342C159.122 538.212 159.689 543.889 182.54 566.173C192.049 575.54 196.449 581.075 200.565 589.165C205.817 599.526 205.817 599.81 205.249 613.01C204.397 631.886 200.707 638.841 181.263 658.995C158.838 682.272 158.838 685.11 182.256 709.38C201.985 729.818 206.668 739.895 205.107 759.34C203.688 776.655 201.133 781.481 182.54 800.925C157.277 827.466 157.418 829.595 188.075 858.691C200.991 870.897 201.417 871.039 208.371 871.039C215.326 871.039 215.752 870.897 228.667 858.691Z" fill="white" fill-opacity="0.05"/>
<path d="M557.18 434.004C587.837 404.908 587.979 402.779 562.715 376.238C544.122 356.793 541.567 351.968 540.148 334.652C538.587 315.208 543.271 305.131 563.141 284.693C586.417 260.707 586.417 256.449 564.134 234.591C553.631 224.23 548.948 218.553 545.258 211.315C540.716 202.089 540.432 200.67 540.432 187.187C540.432 175.69 541 171.858 543.271 167.316C548.806 156.388 554.625 148.865 564.986 139.214C585.424 120.054 585.708 113.099 566.831 93.6545C547.812 74.21 544.548 71.6553 536.884 71.6553C529.219 71.6553 525.955 74.21 506.936 93.6545C487.634 113.525 488.202 119.202 511.052 141.485C520.562 150.852 524.962 156.388 529.077 164.478C534.329 174.839 534.329 175.123 533.761 188.322C532.91 207.199 529.219 214.153 509.775 234.308C487.35 257.584 487.35 260.423 510.768 284.693C530.497 305.131 535.18 315.208 533.619 334.652C532.2 351.968 529.645 356.793 511.052 376.238C485.789 402.779 485.931 404.908 516.588 434.004C529.503 446.21 529.929 446.352 536.884 446.352C543.838 446.352 544.264 446.21 557.18 434.004Z" fill="white" fill-opacity="0.05"/>
<path d="M228.667 434.004C259.324 404.908 259.466 402.779 234.203 376.238C215.61 356.793 213.055 351.968 211.636 334.652C210.075 315.208 214.758 305.131 234.629 284.693C257.905 260.707 257.905 256.449 235.622 234.591C225.119 224.23 220.436 218.553 216.745 211.315C212.204 202.089 211.92 200.67 211.92 187.187C211.92 175.69 212.487 171.858 214.758 167.316C220.294 156.388 226.113 148.865 236.474 139.214C256.912 120.054 257.196 113.099 238.319 93.6545C219.3 74.21 216.036 71.6553 208.371 71.6553C200.707 71.6553 197.443 74.21 178.424 93.6545C159.122 113.525 159.689 119.202 182.54 141.485C192.049 150.852 196.449 156.388 200.565 164.478C205.817 174.839 205.817 175.123 205.249 188.322C204.397 207.199 200.707 214.153 181.263 234.308C158.838 257.584 158.838 260.423 182.256 284.693C201.985 305.131 206.668 315.208 205.107 334.652C203.688 351.968 201.133 356.793 182.54 376.238C157.277 402.779 157.418 404.908 188.075 434.004C200.991 446.21 201.417 446.352 208.371 446.352C215.326 446.352 215.752 446.21 228.667 434.004Z" fill="white" fill-opacity="0.05"/>
<path d="M392.95 858.691C423.607 829.595 423.749 827.466 398.485 800.925C379.892 781.481 377.337 776.655 375.918 759.34C374.357 739.895 379.041 729.818 398.911 709.38C422.187 685.394 422.187 681.136 399.904 659.279C389.401 648.918 384.718 643.241 381.028 636.002C376.486 626.777 376.202 625.358 376.202 611.874C376.202 600.378 376.77 596.546 379.041 592.004C384.576 581.075 390.395 573.553 400.756 563.902C421.194 544.741 421.478 537.786 402.601 518.342C383.582 498.898 380.318 496.343 372.654 496.343C364.989 496.343 361.725 498.898 342.706 518.342C323.404 538.212 323.972 543.889 346.822 566.173C356.332 575.54 360.732 581.075 364.848 589.165C370.099 599.526 370.099 599.81 369.531 613.01C368.68 631.886 364.989 638.841 345.545 658.995C323.12 682.272 323.12 685.11 346.538 709.38C366.267 729.818 370.951 739.895 369.389 759.34C367.97 776.655 365.415 781.481 346.822 800.925C321.559 827.466 321.701 829.595 352.358 858.691C365.273 870.897 365.699 871.039 372.654 871.039C379.608 871.039 380.034 870.897 392.95 858.691Z" fill="white" fill-opacity="0.05"/>
<path d="M64.3848 858.691C95.0417 829.595 95.1837 827.466 69.9201 800.925C51.3272 781.481 48.7724 776.655 47.3531 759.34C45.7919 739.895 50.4756 729.818 70.3459 709.38C93.6224 685.394 93.6224 681.136 71.3394 659.279C60.8365 648.918 56.1528 643.241 52.4626 636.002C47.9209 626.777 47.637 625.358 47.637 611.874C47.637 600.378 48.2047 596.546 50.4756 592.004C56.0109 581.075 61.83 573.553 72.191 563.902C92.6289 544.741 92.9128 537.786 74.036 518.342C55.0174 498.898 51.753 496.343 44.0887 496.343C36.4245 496.343 33.1601 498.898 14.1414 518.342C-5.16111 538.212 -4.59338 543.889 18.2574 566.173C27.7667 575.54 32.1666 581.075 36.2826 589.165C41.534 599.526 41.534 599.81 40.9663 613.01C40.1147 631.886 36.4245 638.841 16.98 658.995C-5.44497 682.272 -5.44497 685.11 17.9735 709.38C37.7019 729.818 42.3856 739.895 40.8243 759.34C39.405 776.655 36.8503 781.481 18.2574 800.925C-7.0062 827.466 -6.86427 829.595 23.7927 858.691C36.7084 870.897 37.1341 871.039 44.0887 871.039C51.0433 871.039 51.4691 870.897 64.3848 858.691Z" fill="white" fill-opacity="0.05"/>
<path d="M392.95 434.004C423.607 404.908 423.749 402.779 398.485 376.238C379.892 356.793 377.337 351.968 375.918 334.652C374.357 315.208 379.041 305.131 398.911 284.693C422.187 260.707 422.187 256.449 399.904 234.591C389.401 224.23 384.718 218.553 381.028 211.315C376.486 202.089 376.202 200.67 376.202 187.187C376.202 175.69 376.77 171.858 379.041 167.316C384.576 156.388 390.395 148.865 400.756 139.214C421.194 120.054 421.478 113.099 402.601 93.6545C383.582 74.21 380.318 71.6553 372.654 71.6553C364.989 71.6553 361.725 74.21 342.706 93.6545C323.404 113.525 323.972 119.202 346.822 141.485C356.332 150.852 360.732 156.388 364.848 164.478C370.099 174.839 370.099 175.123 369.531 188.322C368.68 207.199 364.989 214.153 345.545 234.308C323.12 257.584 323.12 260.423 346.538 284.693C366.267 305.131 370.951 315.208 369.389 334.652C367.97 351.968 365.415 356.793 346.822 376.238C321.559 402.779 321.701 404.908 352.358 434.004C365.273 446.21 365.699 446.352 372.654 446.352C379.608 446.352 380.034 446.21 392.95 434.004Z" fill="white" fill-opacity="0.05"/>
<path d="M64.3843 434.004C95.0413 404.908 95.1832 402.779 69.9196 376.238C51.3267 356.793 48.772 351.968 47.3526 334.652C45.7914 315.208 50.4751 305.131 70.3454 284.693C93.622 260.707 93.622 256.449 71.3389 234.591C60.836 224.23 56.1523 218.553 52.4621 211.315C47.9204 202.089 47.6365 200.67 47.6365 187.187C47.6365 175.69 48.2042 171.858 50.4751 167.316C56.0104 156.388 61.8295 148.865 72.1905 139.214C92.6284 120.054 92.9123 113.099 74.0356 93.6545C55.0169 74.21 51.7525 71.6553 44.0883 71.6553C36.424 71.6553 33.1596 74.21 14.1409 93.6545C-5.16159 113.525 -4.59387 119.202 18.2569 141.485C27.7663 150.852 32.1661 156.388 36.2821 164.478C41.5335 174.839 41.5335 175.123 40.9658 188.322C40.1142 207.199 36.424 214.153 16.9795 234.308C-5.44546 257.584 -5.44546 260.423 17.9731 284.693C37.7014 305.131 42.3851 315.208 40.8238 334.652C39.4045 351.968 36.8498 356.793 18.2569 376.238C-7.00669 402.779 -6.86476 404.908 23.7922 434.004C36.7079 446.21 37.1337 446.352 44.0882 446.352C51.0428 446.352 51.4686 446.21 64.3843 434.004Z" fill="white" fill-opacity="0.05"/>
<path d="M475.09 787.036C505.747 757.94 505.889 755.811 480.625 729.27C462.032 709.826 459.478 705 458.058 687.685C456.497 668.24 461.181 658.163 481.051 637.725C504.328 613.739 504.328 609.481 482.044 587.624C471.542 577.263 466.858 571.585 463.168 564.347C458.626 555.122 458.342 553.702 458.342 540.219C458.342 528.722 458.91 524.89 461.181 520.349C466.716 509.42 472.535 501.898 482.896 492.246C503.334 473.086 503.618 466.131 484.741 446.687C465.722 427.242 462.458 424.687 454.794 424.687C447.13 424.687 443.865 427.242 424.847 446.687C405.544 466.557 406.112 472.234 428.962 494.517C438.472 503.885 442.872 509.42 446.988 517.51C452.239 527.871 452.239 528.155 451.671 541.354C450.82 560.231 447.13 567.186 427.685 587.34C405.26 610.616 405.26 613.455 428.679 637.725C448.407 658.163 453.091 668.24 451.529 687.685C450.11 705 447.555 709.826 428.962 729.27C403.699 755.811 403.841 757.94 434.498 787.036C447.413 799.242 447.839 799.384 454.794 799.384C461.748 799.384 462.174 799.242 475.09 787.036Z" fill="white" fill-opacity="0.05"/>
<path d="M146.525 787.035C177.182 757.939 177.324 755.81 152.061 729.269C133.468 709.825 130.913 704.999 129.494 687.684C127.933 668.239 132.616 658.162 152.486 637.724C175.763 613.738 175.763 609.48 153.48 587.623C142.977 577.262 138.293 571.585 134.603 564.346C130.061 555.121 129.778 553.701 129.778 540.218C129.778 528.722 130.345 524.889 132.616 520.348C138.152 509.419 143.971 501.897 154.332 492.245C174.77 473.085 175.053 466.13 156.177 446.686C137.158 427.241 133.894 424.687 126.229 424.687C118.565 424.687 115.301 427.241 96.2821 446.686C76.9795 466.556 77.5472 472.233 100.398 494.516C109.907 503.884 114.307 509.419 118.423 517.509C123.675 527.87 123.675 528.154 123.107 541.353C122.255 560.23 118.565 567.185 99.1207 587.339C76.6957 610.615 76.6957 613.454 100.114 637.724C119.842 658.162 124.526 668.239 122.965 687.684C121.546 704.999 118.991 709.825 100.398 729.269C75.1344 755.81 75.2764 757.939 105.933 787.035C118.849 799.241 119.275 799.383 126.229 799.383C133.184 799.383 133.61 799.241 146.525 787.035Z" fill="white" fill-opacity="0.05"/>
<path d="M475.09 362.348C505.747 333.253 505.889 331.124 480.625 304.583C462.032 285.138 459.478 280.313 458.058 262.997C456.497 243.553 461.181 233.476 481.051 213.038C504.328 189.051 504.328 184.793 482.044 162.936C471.542 152.575 466.858 146.898 463.168 139.66C458.626 130.434 458.342 129.015 458.342 115.531C458.342 104.035 458.91 100.203 461.181 95.6611C466.716 84.7325 472.535 77.2101 482.896 67.5589C503.334 48.3983 503.618 41.4437 484.741 21.9992C465.722 2.55475 462.458 -4.34349e-07 454.794 -5.25744e-07C447.13 -6.1714e-07 443.865 2.55475 424.847 21.9992C405.544 41.8695 406.112 47.5467 428.962 69.8298C438.472 79.1972 442.872 84.7325 446.988 92.8225C452.239 103.183 452.239 103.467 451.671 116.667C450.82 135.544 447.13 142.498 427.685 162.652C405.26 185.929 405.26 188.767 428.679 213.038C448.407 233.476 453.091 243.553 451.529 262.997C450.11 280.313 447.555 285.138 428.962 304.583C403.699 331.124 403.841 333.253 434.498 362.348C447.413 374.554 447.839 374.696 454.794 374.696C461.748 374.696 462.174 374.554 475.09 362.348Z" fill="white" fill-opacity="0.05"/>
<path d="M146.525 362.348C177.182 333.253 177.324 331.124 152.061 304.583C133.468 285.138 130.913 280.313 129.494 262.997C127.933 243.553 132.616 233.476 152.486 213.038C175.763 189.051 175.763 184.793 153.48 162.936C142.977 152.575 138.293 146.898 134.603 139.66C130.061 130.434 129.778 129.015 129.778 115.531C129.778 104.035 130.345 100.203 132.616 95.6611C138.152 84.7325 143.971 77.2101 154.332 67.5589C174.77 48.3983 175.053 41.4437 156.177 21.9992C137.158 2.55475 133.894 -4.34349e-07 126.229 -5.25744e-07C118.565 -6.1714e-07 115.301 2.55475 96.2821 21.9992C76.9795 41.8695 77.5472 47.5467 100.398 69.8298C109.907 79.1972 114.307 84.7325 118.423 92.8225C123.675 103.183 123.675 103.467 123.107 116.667C122.255 135.544 118.565 142.498 99.1207 162.652C76.6957 185.929 76.6957 188.767 100.114 213.038C119.842 233.476 124.526 243.553 122.965 262.997C121.546 280.313 118.991 285.138 100.398 304.583C75.1344 331.124 75.2764 333.253 105.933 362.348C118.849 374.554 119.275 374.696 126.229 374.696C133.184 374.696 133.61 374.554 146.525 362.348Z" fill="white" fill-opacity="0.05"/>
<path d="M639.32 787.036C669.977 757.94 670.119 755.811 644.855 729.27C626.262 709.826 623.707 705 622.288 687.685C620.727 668.24 625.411 658.163 645.281 637.725C668.557 613.739 668.557 609.481 646.274 587.624C635.772 577.263 631.088 571.585 627.398 564.347C622.856 555.122 622.572 553.702 622.572 540.219C622.572 528.722 623.14 524.89 625.411 520.349C630.946 509.42 636.765 501.898 647.126 492.246C667.564 473.086 667.848 466.131 648.971 446.687C629.952 427.242 626.688 424.687 619.024 424.687C611.36 424.687 608.095 427.242 589.076 446.687C569.774 466.557 570.342 472.234 593.192 494.517C602.702 503.885 607.102 509.42 611.218 517.51C616.469 527.871 616.469 528.155 615.901 541.354C615.05 560.231 611.36 567.186 591.915 587.34C569.49 610.616 569.49 613.455 592.909 637.725C612.637 658.163 617.321 668.24 615.759 687.685C614.34 705 611.785 709.826 593.192 729.27C567.929 755.811 568.071 757.94 598.728 787.036C611.643 799.242 612.069 799.384 619.024 799.384C625.978 799.384 626.404 799.242 639.32 787.036Z" fill="white" fill-opacity="0.05"/>
<path d="M310.809 787.036C341.466 757.94 341.608 755.811 316.344 729.27C297.751 709.826 295.196 705 293.777 687.685C292.216 668.24 296.899 658.163 316.77 637.725C340.046 613.739 340.046 609.481 317.763 587.624C307.26 577.263 302.577 571.585 298.886 564.347C294.345 555.122 294.061 553.702 294.061 540.219C294.061 528.722 294.629 524.89 296.899 520.349C302.435 509.42 308.254 501.898 318.615 492.246C339.053 473.086 339.337 466.131 320.46 446.687C301.441 427.242 298.177 424.687 290.513 424.687C282.848 424.687 279.584 427.242 260.565 446.687C241.263 466.557 241.83 472.234 264.681 494.517C274.191 503.885 278.59 509.42 282.706 517.51C287.958 527.871 287.958 528.155 287.39 541.354C286.539 560.231 282.848 567.186 263.404 587.34C240.979 610.616 240.979 613.455 264.397 637.725C284.126 658.163 288.809 668.24 287.248 687.685C285.829 705 283.274 709.826 264.681 729.27C239.418 755.811 239.56 757.94 270.217 787.036C283.132 799.242 283.558 799.384 290.513 799.384C297.467 799.384 297.893 799.242 310.809 787.036Z" fill="white" fill-opacity="0.05"/>
<path d="M639.32 362.348C669.977 333.253 670.119 331.124 644.855 304.583C626.262 285.138 623.707 280.313 622.288 262.997C620.727 243.553 625.411 233.476 645.281 213.038C668.557 189.051 668.557 184.793 646.274 162.936C635.772 152.575 631.088 146.898 627.398 139.66C622.856 130.434 622.572 129.015 622.572 115.531C622.572 104.035 623.14 100.203 625.411 95.6611C630.946 84.7325 636.765 77.2101 647.126 67.5589C667.564 48.3983 667.848 41.4437 648.971 21.9992C629.952 2.55475 626.688 -4.34349e-07 619.024 -5.25744e-07C611.36 -6.1714e-07 608.095 2.55475 589.076 21.9992C569.774 41.8695 570.342 47.5467 593.192 69.8298C602.702 79.1972 607.102 84.7325 611.218 92.8225C616.469 103.183 616.469 103.467 615.901 116.667C615.05 135.544 611.36 142.498 591.915 162.652C569.49 185.929 569.49 188.767 592.909 213.038C612.637 233.476 617.321 243.553 615.759 262.997C614.34 280.313 611.785 285.138 593.192 304.583C567.929 331.124 568.071 333.253 598.728 362.348C611.643 374.554 612.069 374.696 619.024 374.696C625.978 374.696 626.404 374.554 639.32 362.348Z" fill="white" fill-opacity="0.05"/>
<path d="M310.808 362.348C341.465 333.253 341.607 331.124 316.343 304.583C297.75 285.138 295.195 280.313 293.776 262.997C292.215 243.553 296.898 233.476 316.769 213.038C340.045 189.051 340.045 184.793 317.762 162.936C307.259 152.575 302.576 146.898 298.885 139.66C294.344 130.434 294.06 129.015 294.06 115.531C294.06 104.035 294.628 100.203 296.898 95.6611C302.434 84.7325 308.253 77.2101 318.614 67.5589C339.052 48.3983 339.336 41.4437 320.459 21.9992C301.44 2.55475 298.176 -4.34349e-07 290.512 -5.25744e-07C282.847 -6.1714e-07 279.583 2.55475 260.564 21.9992C241.262 41.8695 241.829 47.5467 264.68 69.8298C274.19 79.1972 278.589 84.7325 282.705 92.8225C287.957 103.183 287.957 103.467 287.389 116.667C286.538 135.544 282.847 142.498 263.403 162.652C240.978 185.929 240.978 188.767 264.396 213.038C284.125 233.476 288.808 243.553 287.247 262.997C285.828 280.313 283.273 285.138 264.68 304.583C239.417 331.124 239.559 333.253 270.216 362.348C283.131 374.554 283.557 374.696 290.512 374.696C297.466 374.696 297.892 374.554 310.808 362.348Z" fill="white" fill-opacity="0.05"/>
</svg>
