<svg width="27" height="22" viewBox="0 0 27 22" fill="none" xmlns="http://www.w3.org/2000/svg">
<path d="M2.34362 14.8696C1.28121 13.4893 0.75 12.7992 0.75 10.75C0.75 8.70078 1.28121 8.01066 2.34362 6.63041C4.46496 3.87445 8.02264 0.75 13.25 0.75C18.4774 0.75 22.035 3.87445 24.1564 6.63041C25.2188 8.01066 25.75 8.70078 25.75 10.75C25.75 12.7992 25.2188 13.4893 24.1564 14.8696C22.035 17.6256 18.4774 20.75 13.25 20.75C8.02264 20.75 4.46496 17.6256 2.34362 14.8696Z" stroke="#007844" stroke-width="1.5"/>
<path d="M17 10.75C17 12.8211 15.3211 14.5 13.25 14.5C11.1789 14.5 9.5 12.8211 9.5 10.75C9.5 8.67893 11.1789 7 13.25 7C15.3211 7 17 8.67893 17 10.75Z" stroke="#007844" stroke-width="1.5"/>
</svg>
