<svg width="14" height="23" viewBox="0 0 14 23" fill="none" xmlns="http://www.w3.org/2000/svg">
<path d="M13.2376 13.7928C13.7624 13.2681 13.8373 12.5185 13.3876 11.7689C13.0128 11.1692 12.3381 10.8694 11.5885 11.0193C11.2887 11.0942 10.9888 11.2442 10.689 11.469C8.36517 13.0432 5.21682 12.9683 2.89303 11.3941C2.7431 11.3191 2.59318 11.2442 2.44325 11.1692C1.61868 10.7944 0.794122 10.9443 0.344356 11.6939C-0.180371 12.4435 -0.105419 13.2681 0.56923 13.9428C0.719152 14.0927 0.869074 14.1676 0.944035 14.3176L1.019 14.3925C2.06845 15.2171 3.34279 15.7418 4.99194 15.9667L4.01744 16.9412C3.19287 17.7658 2.29334 18.6653 1.46877 19.4899C1.24389 19.7148 0.944035 20.0896 0.944035 20.6143C0.944035 21.2889 1.31885 21.9636 1.9935 22.2634C2.21838 22.4133 2.44326 22.4133 2.66814 22.4133C3.04295 22.4133 3.49271 22.2634 3.79256 21.8886C4.91697 20.7642 5.81651 19.8647 6.71604 18.9651C6.791 18.8902 6.791 18.8902 6.791 18.8902C6.791 18.8902 6.86596 18.8902 6.86596 18.9651C7.46565 19.6398 8.1403 20.2395 8.73999 20.9141C9.03983 21.214 9.33967 21.5138 9.63952 21.8137C10.0143 22.1885 10.3142 22.3384 10.7639 22.3384C11.4386 22.4134 12.1882 21.9636 12.488 21.2889C12.7879 20.6892 12.638 19.9396 12.1132 19.4899C11.3636 18.7403 10.614 17.9157 9.78944 17.1661L8.5151 15.8917C9.18975 15.8168 9.93936 15.6669 10.614 15.367C11.7384 14.9922 12.563 14.4675 13.2376 13.7928Z" fill="#007844"/>
<path d="M6.79099 11.6939C10.0143 11.6939 12.638 9.14524 12.638 5.92191C12.638 4.34773 12.0383 2.84852 10.9138 1.72411C9.78943 0.59969 8.36518 0 6.86596 0C3.64264 0 1.09396 2.62363 1.019 5.77199C1.019 7.34618 1.61869 8.77043 2.7431 9.89485C3.79256 11.0942 5.21681 11.6939 6.79099 11.6939ZM5.14185 4.19782C5.59162 3.74805 6.19131 3.52316 6.79099 3.52316C8.14029 3.52316 9.11479 4.57262 9.11479 5.84696C9.11479 7.19626 8.06533 8.17074 6.79099 8.17074C5.4417 8.17074 4.46721 7.1213 4.46721 5.84696C4.46721 5.24727 4.69209 4.64759 5.14185 4.19782Z" fill="#007844"/>
<path d="M13.2376 13.7928C13.7624 13.2681 13.8373 12.5185 13.3876 11.7689C13.0128 11.1692 12.3381 10.8694 11.5885 11.0193C11.2887 11.0942 10.9888 11.2442 10.689 11.469C8.36517 13.0432 5.21682 12.9683 2.89303 11.3941C2.7431 11.3191 2.59318 11.2442 2.44325 11.1692C1.61868 10.7944 0.794122 10.9443 0.344356 11.6939C-0.180371 12.4435 -0.105419 13.2681 0.56923 13.9428C0.719152 14.0927 0.869074 14.1676 0.944035 14.3176L1.019 14.3925C2.06845 15.2171 3.34279 15.7418 4.99194 15.9667L4.01744 16.9412C3.19287 17.7658 2.29334 18.6653 1.46877 19.4899C1.24389 19.7148 0.944035 20.0896 0.944035 20.6143C0.944035 21.2889 1.31885 21.9636 1.9935 22.2634C2.21838 22.4133 2.44326 22.4133 2.66814 22.4133C3.04295 22.4133 3.49271 22.2634 3.79256 21.8886C4.91697 20.7642 5.81651 19.8647 6.71604 18.9651C6.791 18.8902 6.791 18.8902 6.791 18.8902C6.791 18.8902 6.86596 18.8902 6.86596 18.9651C7.46565 19.6398 8.1403 20.2395 8.73999 20.9141C9.03983 21.214 9.33967 21.5138 9.63952 21.8137C10.0143 22.1885 10.3142 22.3384 10.7639 22.3384C11.4386 22.4134 12.1882 21.9636 12.488 21.2889C12.7879 20.6892 12.638 19.9396 12.1132 19.4899C11.3636 18.7403 10.614 17.9157 9.78944 17.1661L8.5151 15.8917C9.18975 15.8168 9.93936 15.6669 10.614 15.367C11.7384 14.9922 12.563 14.4675 13.2376 13.7928Z" fill="#007844"/>
</svg>
