<svg width="31" height="41" viewBox="0 0 31 41" fill="none" xmlns="http://www.w3.org/2000/svg">
<path d="M12.195 9.95422C10.8119 12.3384 8.68063 14.1732 6.61713 15.9936C4.55366 17.8139 2.47178 19.7272 1.23984 22.1937C-3.70575 32.0949 7.11964 41.3234 16.507 40.5115C22.3406 40.007 27.9471 35.9672 30.0172 30.4039C33.4962 21.0544 27.1502 9.23548 20.1969 3.144C19.2933 2.35233 13.0802 -1.9233 12.7174 1.02275C12.5676 2.23956 13.4764 3.66426 13.5295 4.91927C13.6038 6.6751 13.0698 8.4461 12.195 9.95422Z" fill="#78D864"/>
<path d="M2.42904 23.0025C1.43785 25.1601 1.21054 27.6631 1.79659 29.9655C1.92021 30.4513 2.08148 30.9339 2.35132 31.3557C2.62113 31.7776 3.00927 32.1373 3.48206 32.2973C4.31784 32.5803 5.26522 32.18 5.86443 31.5294C6.46364 30.8788 6.78159 30.0209 7.05165 29.1768C7.87685 26.5977 8.38937 23.9176 8.57429 21.2147C8.64276 20.214 8.47521 17.5812 6.83079 18.2639C5.59292 18.7778 4.45707 19.9474 3.65017 20.9904C3.16933 21.6119 2.75749 22.2876 2.42904 23.0025Z" fill="white"/>
<path d="M9.34499 15.4711C9.18656 15.6766 9.04038 15.898 8.96904 16.148C8.89771 16.3979 8.90956 16.6819 9.0507 16.8998C9.22686 17.1717 9.57425 17.2924 9.89656 17.2745C10.2189 17.2567 10.5225 17.1219 10.8107 16.9758C11.4671 16.6431 12.1091 16.2192 12.4974 15.5917C12.7523 15.1798 12.8778 14.662 12.7945 14.1801C12.6816 13.5275 12.4539 13.4402 11.8738 13.645C10.8813 13.9955 9.98999 14.6346 9.34499 15.4711Z" fill="white"/>
<g opacity="0.2" style="mix-blend-mode:multiply">
<path d="M25.1489 8.65137C25.1888 8.74263 25.2261 8.83183 25.2585 8.91734C26.1531 11.2796 26.834 13.7292 27.177 16.2361C27.9038 21.5487 27.0095 27.2358 23.8873 31.5838C20.765 35.9317 15.2077 38.6553 9.97742 37.603C7.75124 37.1551 5.70427 36.0859 3.56148 35.3317C3.5143 35.3151 3.46634 35.2996 3.41895 35.2833C6.67747 38.7776 11.7745 40.921 16.5072 40.5117C22.3409 40.0072 27.9474 35.9674 30.0175 30.4041C32.6277 23.3892 29.707 14.9844 25.1489 8.65137Z" fill="#5E94EB"/>
</g>
</svg>
