<svg width="22" height="22" viewBox="0 0 22 22" fill="none" xmlns="http://www.w3.org/2000/svg">
<path d="M11.8613 0.75C11.8613 0.75 14.3058 0.972222 17.4169 4.08333C20.528 7.19445 20.7502 9.63889 20.7502 9.63889" stroke="#78D864" stroke-width="1.5" stroke-linecap="round"/>
<path d="M12.0913 4.67871C12.0913 4.67871 13.1913 4.99298 14.8412 6.6429C16.4911 8.29281 16.8054 9.39276 16.8054 9.39276" stroke="#78D864" stroke-width="1.5" stroke-linecap="round"/>
<path d="M7.45843 4.43458L8.17956 5.72672C8.83034 6.89282 8.56909 8.42253 7.54412 9.44751C7.54412 9.44751 6.30086 10.6908 8.55502 12.9449C10.8091 15.199 12.0524 13.9558 12.0524 13.9558C13.0774 12.9309 14.6071 12.6696 15.7732 13.3204L17.0654 14.0415C18.8262 15.0242 19.0341 17.4935 17.4864 19.0413C16.5564 19.9713 15.4171 20.6949 14.1577 20.7427C12.0375 20.823 8.43698 20.2865 4.82523 16.6747C1.21348 13.063 0.676905 9.46242 0.75728 7.34227C0.805024 6.08284 1.52867 4.94354 2.45867 4.01354C4.00639 2.46581 6.47575 2.67376 7.45843 4.43458Z" stroke="#78D864" stroke-width="1.5" stroke-linecap="round"/>
</svg>
