<svg width="22" height="22" viewBox="0 0 22 22" fill="none" xmlns="http://www.w3.org/2000/svg">
<path d="M10.75 6.30566V10.7501L13.5278 13.5279" stroke="#78D864" stroke-width="1.5" stroke-linecap="round" stroke-linejoin="round"/>
<path d="M3.64349 3.64349L3.11316 3.11316V3.11316L3.64349 3.64349ZM2.2364 5.05058L1.48641 5.05435C1.48848 5.46561 1.82136 5.7985 2.23263 5.80057L2.2364 5.05058ZM5.06102 5.81478C5.47523 5.81686 5.8127 5.48277 5.81478 5.06856C5.81686 4.65435 5.48277 4.31688 5.06856 4.3148L5.06479 5.06479L5.06102 5.81478ZM2.97218 2.21842C2.9701 1.80421 2.63263 1.47012 2.21842 1.4722C1.80421 1.47428 1.47012 1.81175 1.4722 2.22596L2.22219 2.22219L2.97218 2.21842ZM1.58589 9.38859C1.64214 8.97822 1.35506 8.59994 0.944688 8.54369C0.534312 8.48744 0.156036 8.77452 0.0997862 9.18489L0.842839 9.28674L1.58589 9.38859ZM17.7854 3.71456L18.3158 3.18423C14.1031 -1.02845 7.29664 -1.07032 3.11316 3.11316L3.64349 3.64349L4.17382 4.17382C7.76148 0.586156 13.6182 0.607923 17.2551 4.24489L17.7854 3.71456ZM3.71455 17.7854L3.18422 18.3158C7.3969 22.5284 14.2034 22.5703 18.3868 18.3868L17.8565 17.8565L17.3262 17.3262C13.7385 20.9138 7.88185 20.8921 4.24488 17.2551L3.71455 17.7854ZM17.8565 17.8565L18.3868 18.3868C22.5703 14.2034 22.5284 7.3969 18.3158 3.18423L17.7854 3.71456L17.2551 4.24489C20.8921 7.88185 20.9138 13.7385 17.3262 17.3262L17.8565 17.8565ZM3.64349 3.64349L3.11316 3.11316L1.70607 4.52025L2.2364 5.05058L2.76673 5.58091L4.17382 4.17382L3.64349 3.64349ZM2.2364 5.05058L2.23263 5.80057L5.06102 5.81478L5.06479 5.06479L5.06856 4.3148L2.24017 4.30059L2.2364 5.05058ZM2.2364 5.05058L2.98639 5.04681L2.97218 2.21842L2.22219 2.22219L1.4722 2.22596L1.48641 5.05435L2.2364 5.05058ZM0.842839 9.28674L0.0997862 9.18489C-0.342835 12.4141 0.687906 15.8195 3.18422 18.3158L3.71455 17.7854L4.24488 17.2551C2.09184 15.1021 1.20473 12.1694 1.58589 9.38859L0.842839 9.28674Z" fill="#78D864"/>
</svg>
