<svg width="23" height="15" viewBox="0 0 23 15" fill="none" xmlns="http://www.w3.org/2000/svg">
<path d="M12.2004 14.2545C4.54716 14.2545 0.181886 8.90374 0 0H3.8336C3.95953 6.53512 6.78576 9.30327 9.02436 9.87402V0H12.6341V5.63618C14.8447 5.39361 17.1673 2.82523 17.9508 0H21.5605C21.2653 1.46524 20.6767 2.85259 19.8317 4.07527C18.9867 5.29796 17.9034 6.32966 16.6496 7.10587C18.0492 7.81511 19.2854 8.81898 20.2766 10.0512C21.2678 11.2835 21.9915 12.7161 22.4 14.2545H18.4265C18.0598 12.9183 17.3146 11.7221 16.2842 10.816C15.2538 9.9098 13.984 9.33395 12.6341 9.16058V14.2545H12.2004V14.2545Z" fill="#007844"/>
</svg>
